# xmcd CD database file generated by LOLA_Freedb v0.9beta0
#
# Track frame offsets:
#      150
#      18789
#      37104
#      62694
#      77225
#      94775
#      110969
#      127346
#      147748
#      168037
#      183963
#      199275
#
# Disc length: 2984 seconds
#
# Revision: 0
# Processed by: cddbd v1.5.2PL0 Copyright (c) Steve Scherf et al.
# Submitted via: LOLA_Freedb v0.9beta0
#
DISCID=b00ba60c
DTITLE=TheCrystalApes - Galaxies
DYEAR=2007
DGENRE=
TTITLE0=TheCrystalApes - Violet
TTITLE1=TheCrystalApes - Leron
TTITLE2=TheCrystalApes - White
TTITLE3=TheCrystalApes - Norug
TTITLE4=TheCrystalApes - Black
TTITLE5=TheCrystalApes - Jawie
TTITLE6=TheCrystalApes - Inore
TTITLE7=TheCrystalApes - Nightlight
TTITLE8=TheCrystalApes - Lifetime
TTITLE9=TheCrystalApes - Brack
TTITLE10=TheCrystalApes - Jargo
TTITLE11=TheCrystalApes - Legends
EXTD=
EXTT0=
EXTT1=
EXTT2=
EXTT3=
EXTT4=
EXTT5=
EXTT6=
EXTT7=
EXTT8=
EXTT9=
EXTT10=
EXTT11=
PLAYORDER=
